<mxfile host="app.diagrams.net" modified="2020-10-14T00:02:25.481Z" agent="5.0 (Windows NT 6.1) AppleWebKit/537.36 (KHTML, like Gecko) Chrome/85.0.4183.121 Safari/537.36" etag="Tq8cHwaOfY_htgosA2OT" version="13.7.9" type="github">
  <diagram name="Page-1" id="74e2e168-ea6b-b213-b513-2b3c1d86103e">
    <mxGraphModel dx="548" dy="482" grid="1" gridSize="10" guides="1" tooltips="1" connect="1" arrows="1" fold="1" page="1" pageScale="1" pageWidth="1100" pageHeight="850" background="#ffffff" math="0" shadow="0">
      <root>
        <mxCell id="0" />
        <mxCell id="1" parent="0" />
        <mxCell id="GRQkgwyY6_AbB_6V_gYn-2" value="" style="rounded=0;whiteSpace=wrap;html=1;" vertex="1" parent="1">
          <mxGeometry x="40" y="240" width="120" height="60" as="geometry" />
        </mxCell>
        <mxCell id="GRQkgwyY6_AbB_6V_gYn-3" value="Player" style="rounded=0;whiteSpace=wrap;html=1;fillColor=#d5e8d4;strokeColor=#82b366;fontStyle=0" vertex="1" parent="1">
          <mxGeometry x="60" y="255" width="80" height="30" as="geometry" />
        </mxCell>
        <mxCell id="GRQkgwyY6_AbB_6V_gYn-4" value="" style="ellipse;whiteSpace=wrap;html=1;aspect=fixed;" vertex="1" parent="1">
          <mxGeometry x="245" y="225" width="90" height="90" as="geometry" />
        </mxCell>
        <mxCell id="GRQkgwyY6_AbB_6V_gYn-5" value="Game Manager" style="text;html=1;strokeColor=#d79b00;fillColor=#ffe6cc;align=center;verticalAlign=middle;whiteSpace=wrap;rounded=0;" vertex="1" parent="1">
          <mxGeometry x="255" y="250" width="70" height="40" as="geometry" />
        </mxCell>
        <mxCell id="GRQkgwyY6_AbB_6V_gYn-6" value="" style="rounded=0;whiteSpace=wrap;html=1;" vertex="1" parent="1">
          <mxGeometry x="430" y="240" width="120" height="60" as="geometry" />
        </mxCell>
        <mxCell id="GRQkgwyY6_AbB_6V_gYn-7" value="DataBase" style="rounded=0;whiteSpace=wrap;html=1;fillColor=#d5e8d4;strokeColor=#82b366;" vertex="1" parent="1">
          <mxGeometry x="450" y="255" width="80" height="30" as="geometry" />
        </mxCell>
        <mxCell id="GRQkgwyY6_AbB_6V_gYn-8" value="start" style="endArrow=classic;html=1;exitX=1;exitY=0;exitDx=0;exitDy=0;" edge="1" parent="1" source="GRQkgwyY6_AbB_6V_gYn-2">
          <mxGeometry width="50" height="50" relative="1" as="geometry">
            <mxPoint x="160" y="255" as="sourcePoint" />
            <mxPoint x="246" y="240" as="targetPoint" />
          </mxGeometry>
        </mxCell>
        <mxCell id="GRQkgwyY6_AbB_6V_gYn-9" value="End" style="endArrow=classic;html=1;exitX=1;exitY=0;exitDx=0;exitDy=0;" edge="1" parent="1">
          <mxGeometry width="50" height="50" relative="1" as="geometry">
            <mxPoint x="159" y="299" as="sourcePoint" />
            <mxPoint x="245" y="299" as="targetPoint" />
          </mxGeometry>
        </mxCell>
        <mxCell id="GRQkgwyY6_AbB_6V_gYn-11" value="game play" style="endArrow=classic;startArrow=classic;html=1;exitX=1;exitY=0.5;exitDx=0;exitDy=0;" edge="1" parent="1" source="GRQkgwyY6_AbB_6V_gYn-2">
          <mxGeometry width="50" height="50" relative="1" as="geometry">
            <mxPoint x="195" y="315" as="sourcePoint" />
            <mxPoint x="240" y="270" as="targetPoint" />
          </mxGeometry>
        </mxCell>
        <mxCell id="GRQkgwyY6_AbB_6V_gYn-12" value="sign up" style="endArrow=classic;html=1;exitX=0.944;exitY=0.189;exitDx=0;exitDy=0;exitPerimeter=0;" edge="1" parent="1" source="GRQkgwyY6_AbB_6V_gYn-4">
          <mxGeometry width="50" height="50" relative="1" as="geometry">
            <mxPoint x="260" y="370" as="sourcePoint" />
            <mxPoint x="427" y="247" as="targetPoint" />
          </mxGeometry>
        </mxCell>
        <mxCell id="GRQkgwyY6_AbB_6V_gYn-13" value="save progress" style="endArrow=classic;html=1;entryX=0;entryY=0.5;entryDx=0;entryDy=0;" edge="1" parent="1" source="GRQkgwyY6_AbB_6V_gYn-4" target="GRQkgwyY6_AbB_6V_gYn-6">
          <mxGeometry width="50" height="50" relative="1" as="geometry">
            <mxPoint x="335" y="320" as="sourcePoint" />
            <mxPoint x="405.71067811865476" y="270" as="targetPoint" />
          </mxGeometry>
        </mxCell>
        <mxCell id="GRQkgwyY6_AbB_6V_gYn-16" value="login" style="endArrow=classic;html=1;entryX=0.956;entryY=0.8;entryDx=0;entryDy=0;entryPerimeter=0;exitX=-0.025;exitY=0.867;exitDx=0;exitDy=0;exitPerimeter=0;" edge="1" parent="1" source="GRQkgwyY6_AbB_6V_gYn-6" target="GRQkgwyY6_AbB_6V_gYn-4">
          <mxGeometry width="50" height="50" relative="1" as="geometry">
            <mxPoint x="260" y="370" as="sourcePoint" />
            <mxPoint x="310" y="320" as="targetPoint" />
          </mxGeometry>
        </mxCell>
        <mxCell id="GRQkgwyY6_AbB_6V_gYn-17" value="DFD Level 0" style="text;html=1;strokeColor=#b85450;fillColor=#f8cecc;align=center;verticalAlign=middle;whiteSpace=wrap;rounded=0;" vertex="1" parent="1">
          <mxGeometry x="235" y="160" width="110" height="40" as="geometry" />
        </mxCell>
      </root>
    </mxGraphModel>
  </diagram>
</mxfile>
